<?xml version="1.0" standalone="no"?>
<svg xmlns:xlink="http://www.w3.org/1999/xlink" id="wave" style="transform:rotate(180deg); transition: 0.3s" viewBox="0 0 1440 100" version="1.1" xmlns="http://www.w3.org/2000/svg"><defs><linearGradient id="sw-gradient-0" x1="0" x2="0" y1="1" y2="0"><stop stop-color="rgba(255, 249, 234, 1)" offset="0%"/><stop stop-color="rgba(255, 249, 234, 1)" offset="100%"/></linearGradient></defs><path style="transform:translate(0, 0px); opacity:1" fill="url(#sw-gradient-0)" d="M0,30L30,40C60,50,120,70,180,71.7C240,73,300,57,360,56.7C420,57,480,73,540,71.7C600,70,660,50,720,40C780,30,840,30,900,28.3C960,27,1020,23,1080,31.7C1140,40,1200,60,1260,58.3C1320,57,1380,33,1440,33.3C1500,33,1560,57,1620,60C1680,63,1740,47,1800,41.7C1860,37,1920,43,1980,43.3C2040,43,2100,37,2160,33.3C2220,30,2280,30,2340,30C2400,30,2460,30,2520,36.7C2580,43,2640,57,2700,58.3C2760,60,2820,50,2880,41.7C2940,33,3000,27,3060,23.3C3120,20,3180,20,3240,25C3300,30,3360,40,3420,48.3C3480,57,3540,63,3600,66.7C3660,70,3720,70,3780,68.3C3840,67,3900,63,3960,56.7C4020,50,4080,40,4140,30C4200,20,4260,10,4290,5L4320,0L4320,100L4290,100C4260,100,4200,100,4140,100C4080,100,4020,100,3960,100C3900,100,3840,100,3780,100C3720,100,3660,100,3600,100C3540,100,3480,100,3420,100C3360,100,3300,100,3240,100C3180,100,3120,100,3060,100C3000,100,2940,100,2880,100C2820,100,2760,100,2700,100C2640,100,2580,100,2520,100C2460,100,2400,100,2340,100C2280,100,2220,100,2160,100C2100,100,2040,100,1980,100C1920,100,1860,100,1800,100C1740,100,1680,100,1620,100C1560,100,1500,100,1440,100C1380,100,1320,100,1260,100C1200,100,1140,100,1080,100C1020,100,960,100,900,100C840,100,780,100,720,100C660,100,600,100,540,100C480,100,420,100,360,100C300,100,240,100,180,100C120,100,60,100,30,100L0,100Z"/><defs><linearGradient id="sw-gradient-1" x1="0" x2="0" y1="1" y2="0"><stop stop-color="rgba(255, 249, 234, 1)" offset="0%"/><stop stop-color="rgba(255, 249, 234, 1)" offset="100%"/></linearGradient></defs><path style="transform:translate(0, 50px); opacity:0.9" fill="url(#sw-gradient-1)" d="M0,20L30,18.3C60,17,120,13,180,10C240,7,300,3,360,15C420,27,480,53,540,60C600,67,660,53,720,51.7C780,50,840,60,900,66.7C960,73,1020,77,1080,71.7C1140,67,1200,53,1260,55C1320,57,1380,73,1440,71.7C1500,70,1560,50,1620,46.7C1680,43,1740,57,1800,51.7C1860,47,1920,23,1980,25C2040,27,2100,53,2160,58.3C2220,63,2280,47,2340,35C2400,23,2460,17,2520,11.7C2580,7,2640,3,2700,5C2760,7,2820,13,2880,26.7C2940,40,3000,60,3060,63.3C3120,67,3180,53,3240,50C3300,47,3360,53,3420,51.7C3480,50,3540,40,3600,36.7C3660,33,3720,37,3780,35C3840,33,3900,27,3960,31.7C4020,37,4080,53,4140,65C4200,77,4260,83,4290,86.7L4320,90L4320,100L4290,100C4260,100,4200,100,4140,100C4080,100,4020,100,3960,100C3900,100,3840,100,3780,100C3720,100,3660,100,3600,100C3540,100,3480,100,3420,100C3360,100,3300,100,3240,100C3180,100,3120,100,3060,100C3000,100,2940,100,2880,100C2820,100,2760,100,2700,100C2640,100,2580,100,2520,100C2460,100,2400,100,2340,100C2280,100,2220,100,2160,100C2100,100,2040,100,1980,100C1920,100,1860,100,1800,100C1740,100,1680,100,1620,100C1560,100,1500,100,1440,100C1380,100,1320,100,1260,100C1200,100,1140,100,1080,100C1020,100,960,100,900,100C840,100,780,100,720,100C660,100,600,100,540,100C480,100,420,100,360,100C300,100,240,100,180,100C120,100,60,100,30,100L0,100Z"/></svg>